<svg width="384" height="512" xmlns="http://www.w3.org/2000/svg" xmlns:xlink="http://www.w3.org/1999/xlink" xml:space="preserve" overflow="hidden"><defs><clipPath id="clip0"><rect x="448" y="104" width="384" height="512"/></clipPath></defs><g clip-path="url(#clip0)" transform="translate(-448 -104)"><path d="M822.6 350.6C816.4 356.9 808.2 360 800 360 791.8 360 783.62 356.875 777.38 350.625L672 245.3 672 552C672 569.69 657.67 583.1 640.9 583.1 624.13 583.1 608 569.7 608 552L608 245.3 502.63 350.6C490.13 363.1 469.88 363.1 457.38 350.6 444.88 338.1 444.88 317.85 457.38 305.35L617.38 145.35C629.88 132.85 650.13 132.85 662.63 145.35L822.63 305.35C835.1 317.9 835.1 338.1 822.6 350.6Z" fill="#FFFFFF"/></g></svg>